# xmcd
#
# Track frame offsets: 
#        180
#        25671
#        44557
#        71666
#        89240
#        125479
#        156049
#        186430
#        193036
#        215291
#        238736
#
# Disc length: 3602 seconds
#
# Revision: 0
# Processed by: cddbd v1.5PL3 Copyright (c) Steve Scherf et al.
# Submitted via: ExactAudioCopy v0.95a4
#
DISCID=a20e100b
DTITLE=Ernie Williams and The Wildcats - Harvet Time
DYEAR=1997
DGENRE=Blues
TTITLE0=Tell Me Baby What's Wrong With You
TTITLE1=You Spoiled Me
TTITLE2=Love Of Gold
TTITLE3=Harvest Time
TTITLE4=It's Over
TTITLE5=So Long
TTITLE6=Going Home
TTITLE7=Hambone
TTITLE8=My Time Has Come
TTITLE9=Evil In this World
TTITLE10=Searching For Salvation
EXTD=
EXTT0=
EXTT1=
EXTT2=
EXTT3=
EXTT4=
EXTT5=
EXTT6=
EXTT7=
EXTT8=
EXTT9=
EXTT10=
PLAYORDER=
